<svg width="24" height="24" viewBox="0 0 24 24" fill="none" xmlns="http://www.w3.org/2000/svg">
<g clip-path="url(#clip0_1318_12335)">
<path d="M11.76 24C14.928 24 17.592 22.92 19.536 21.096C21.768 18.984 23.04 15.912 23.04 12.264C23.04 11.28 22.968 10.56 22.8 9.816H11.76V14.256H18.24C18.096 15.36 17.4 17.04 15.84 18.144C14.832 18.864 13.512 19.344 11.76 19.344C8.64 19.344 6 17.256 5.064 14.376C4.824 13.632 4.68 12.84 4.68 12C4.68 11.16 4.824 10.368 5.064 9.624C6 6.72 8.64 4.632 11.76 4.632C13.968 4.632 15.456 5.616 16.296 6.432L19.608 3.12C17.592 1.176 14.928 0 11.76 0C7.152 0 3.192 2.688 1.248 6.6C0.456 8.232 0 10.08 0 12C0 13.92 0.456 15.744 1.248 17.376C3.168 21.312 7.152 24 11.76 24Z" fill="#0093ED"/>
</g>
<defs>
<clipPath id="clip0_1318_12335">
<rect width="24" height="24" fill="white"/>
</clipPath>
</defs>
</svg>
