<svg width="24" height="21" viewBox="0 0 24 21" fill="none" xmlns="http://www.w3.org/2000/svg">
<path d="M11.664 6.18399L11.712 7.02399L10.848 6.92799C7.68 6.51999 4.92 5.15199 2.592 2.87199L1.44 1.71999L1.152 2.55999C0.528 4.43199 0.912 6.42399 2.232 7.74399C2.904 8.48799 2.76 8.58399 1.56 8.15199C1.152 8.00799 0.792 7.91199 0.744 7.95999C0.624 8.07999 1.032 9.68799 1.368 10.312C1.824 11.176 2.736 12.04 3.744 12.544L4.608 12.952L3.6 12.976C2.616 12.976 2.592 12.976 2.688 13.36C3.024 14.488 4.416 15.688 5.928 16.216L7.008 16.6L6.072 17.152C4.68 17.968 3.048 18.424 1.416 18.448C0.648 18.472 0 18.544 0 18.592C0 18.76 2.112 19.744 3.36 20.128C7.032 21.28 11.424 20.776 14.736 18.832C17.064 17.44 19.416 14.704 20.496 12.04C21.096 10.624 21.672 8.03199 21.672 6.78399C21.672 5.99199 21.72 5.87199 22.704 4.91199C23.28 4.35999 23.808 3.73599 23.904 3.56799C24.096 3.23199 24.072 3.23199 23.184 3.51999C21.72 4.04799 21.504 3.97599 22.224 3.20799C22.776 2.63199 23.424 1.62399 23.424 1.33599C23.424 1.26399 23.16 1.35999 22.848 1.52799C22.536 1.69599 21.84 1.95999 21.336 2.10399L20.4 2.41599L19.536 1.83999C19.08 1.52799 18.408 1.16799 18.072 1.07199C17.184 0.807994 15.84 0.855994 15.048 1.14399C12.864 1.91199 11.496 3.95199 11.664 6.18399Z" fill="#0093ED"/>
</svg>
