<svg xmlns="http://www.w3.org/2000/svg" xml:space="preserve" width="532.51331" height="755.90533" viewBox="0 0 532.51331 755.90532"><defs><clipPath id="a" clipPathUnits="userSpaceOnUse"><path d="M0 841.89h595.28V0H0Z"/></clipPath></defs><g clip-path="url(#a)" transform="matrix(1.33333 0 0 -1.33333 -130.667 938.52)"><path d="M0 0h-399.385v-428.71c0-33.486 20.356-59.847 61.068-79.288 13.538-6.513 31.553-13.231 54.149-20.051l50.381-15.369 7.123-3.258c5.291-2.442 9.058-4.477 11.197-6.106 5.19-3.663 10.279-8.345 15.267-14.147 4.783 4.987 8.652 8.652 11.5 10.994 5.6 4.58 12.723 8.55 21.577 11.908 6.311 2.442 23.004 7.734 50.075 15.978 23.306 7.127 41.63 13.74 54.76 19.848C-20.766-488.964 0-462.5 0-428.71Z" style="fill:#7d1c42;fill-opacity:1;fill-rule:evenodd;stroke:none" transform="translate(497.385 703.89)"/><path d="M0 0c4.681-3.155 9.363-7.126 14.147-12.111 4.378 4.274 7.938 7.43 10.582 9.463 4.987 3.868 11.606 7.33 20.054 10.28 5.799 2.138 21.375 6.717 46.513 13.843 21.681 6.209 38.675 11.908 50.995 17.199 38.573 16.589 57.81 39.593 57.81 68.806l-.001 414.055h-371.091V107.482c0-29.009 18.933-51.808 56.692-68.6 12.622-5.597 29.414-11.399 50.38-17.404l46.82-13.334z" style="fill:#a5c5e9;fill-opacity:1;fill-rule:evenodd;stroke:none" transform="translate(283.138 167.903)"/><path d="m0 0-13.843 2.035-6.31 12.723-6.109-12.724-13.943-2.035 10.075-9.975-2.442-14.147c4.173 2.238 8.347 4.477 12.418 6.717l12.518-6.717-2.442 14.147z" style="fill:#fff;fill-opacity:1;fill-rule:evenodd;stroke:none" transform="translate(190.127 548.81)"/><path d="M0 0c-2.794-2.792-2.651-7.086-5.65-8.769-2.168-1.217-4.641-.83-5.692.29-1.504 1.607-2.025 4.122-.057 6.329C-9.062.473-4.158.068 0 0m-20.985-40.709c-.086-3.426.415-6.069 2.088-8.122-2.436-1.936-1.951-4.993-.824-7.715 1.223-2.957 5.404-7.642 10.571-9.811.88 1.527-1.562 5.604-.684 8.406 3.16-2.424 6.159-4.326 8.211-4.137-1.389 2.807-1.536 4.692-1.023 5.44 5.549 4.615 12.134 10.451 16.065 11.739 3.184 1.044 6.518-1.172 7.061-5.181.62-4.585-1.152-8.444-4.179-11.672-5.37-5.733-12.583-8.492-18.15-14.665-8.878-9.844-10.733-20.723-21.501-21.288 5.95 4.005 9.334 7.435 12.737 13.934-21.246-3.238-34.157 8.216-47.225 14.912-5.726 2.935-11.452 3.55-14.699 4.251-5.186 5.359-7.836 9.757-9.057 16.951-1.383 8.153.683 15.384-6.791 16.266-4.286 5.929-9.738 9.946-17.74 4.701 4.281-.742 7.391-1.756 9.503-8.086-.618-.927-2.055-2.319-2.093-3.944-2.703-.153-3.546-.382-5.323-2.085-7.11 2.874-13.806 1.688-17.203-5.362 4.946 1.321 8.769 1.16 12.168-2.17.367-2.28.605-3.947 1.899-5.606-2.939-1.793-4.732-5.367-4.846-7.744-5.741-1.366-9.211-4.952-9.519-10.405 4.107 2.873 8.358 3.225 10.459 2.66 1.339-1.37 2.532-4.038 5.286-4.807 3.119-.871 9.16.431 12.649-.595 1.367-2.413 1.873-3.672 1.749-5.207-.485-6.028-10.291-2.059-9.396-11.077-3.403-.976-5.466.215-8.44 2.348 2-8.925 7.216-12.993 14.153-8.792 5.885-1.283 9.525 4.811 14.826 7.716 5.105 2.796 12.548-.797 16.76-3.779 6.462-4.574 13.325-10.36 16.882-24.149 2.308 2.377 3.872 5.857 4.258 9.258l16.763-15.523-36.145-28.028c-2.467-1.912-5.248-3.666-7.844-2.636-2.221.881-3.488 3.334-5.427 5.165-2.833 2.678-6.644 4.456-10.721 2.223-6.461.218-12.456-1.309-13.676-11.009 2.137 1.927 4.102 3.639 8.113 2.434.018-2.435.636-4.56 2.202-6.374-2.009-1.237-3.323-3.17-3.477-4.406-5.963-.344-10.311-3.722-10.894-10.779 3.382 3.389 6.205 4.881 10.2 3.246 1.181-7.24 4.509-8.141 8.343-7.649-1.082-3.092-1.317-5.292.074-7.88-2.081-4.62.179-10.577 3.171-12.561-.387 2.861.078 6.264 1.702 7.768 3.4-.839 5.924.521 9.324 4.954.81-3.729 3.422-5.793 6.707-5.492.443-3.885 2.205-7.014 4.504-9.039-.657 3.167-1.028 6.684-.448 9.851 6.162 4.867 4.917 10.17 5.938 16.223 1.136 6.738 4.531 9.736 9.961 13.301 10.542 6.92 22.979 12.17 42.642 13.818 6.143-7.415 12.258-15.442 20.025-22.275-11.883-9.583-19.936-5.561-29.571-6.69-4.341-.507-10.083-2.537-13.191-5.752-2.738-2.832-4.136-6.437-7.184-7.967-2.369-1.19-5.54-1.517-9.222 1.53-.18-8.669 3.327-11.54 12.181-11.038-3.127-3.698-6.412-5.1-13.136-2.635 2.85-6.898 7.505-9.441 14.73-8.677 1.709-11.82 16.861-18.375 14.163-27.706-3.653-12.635-31.592-16.101-41.739-9.563-7.134 4.598-10.322 12.268-18.706 9.74-4.621 4.204-13.157 5.581-16.676-4.504 6.09 3.402 8.869 1.545 7.555-2.456-10.943-.145-15.069-5.582-13.545-13.001 2.122 3.89 4.374 4.792 7.148 4.257-.917-2.104-1.511-4.857-1.39-9.04-5.406-3.268-5.614-9.265-3.161-14.287 1.423 4.095 2.131 7.838 5.479 8.028 2.002-2.71 4.784-4.642 8.344-5.794-1.249-6.42-.94-12.255.927-17.116 1.234 4.3 2.466 7.041 4.089 9.003 5.636-3.907 11.596-3.985 17.421-2.414 11.898 3.209 19.206 12.485 28.445 12.624 5.136.078 7.48-3.957 4.033-8.672 7.371.449 11.341 2.177 14.922 4.243 5.584 3.223 9.106 7.271 14.52 8.566 9.001 2.152 21.689-8.161 27.719 3.353-7.088-1.195-11.164 2.015-12.406 5.368 8.931-1.554 14.733-1.29 19.527 6.173-13.034-2.193-18.833 9.173-19.634 15.413-.752 5.862 1.139 16.84 13.32 20.538 3.924 8.148 5.995 12.417 10.254 19.147l1.415 6.559c.862-3.043 1.519-5.948.567-9.247-1.391-4.823-4.754-10.077-6.791-15.605-1.676-4.548-2.181-9.545-1.935-13.322.31-4.743 1.947-9.085 4.947-12.657 5.002-5.952 12.305-10.765 7.184-22.682 5.485.542 8.633 3.163 14.119 9.419 4.171-3.182 7.238-7.468 5.694-13.249 6.929 2.128 11.301 7.559 13.749 15.466 9.926-.287 15.485-2.262 16.446-6.08 1.603-6.363-14.277-29.969-34.23-30.774-3.169.851-5.672 4.152-8.146 5.327-2.237 1.062-5.315.835-7.975-2.936-6.248 1.695-13.6.075-15.526-6.907-3.709-1.65-7.007-7.152-6.468-11.999 1.329 1.153 5.589 3.999 7.21 4.221.449-1.446 2.95-2.966 4.378-3.381-8.443-7.401-8.708-13.47-7.968-16.36 3.565 5.767 7.742 6.841 9.772 6.686 1.433-3.605 4.282-5.104 8.451-5.572l.198-10.02 7.136 7.899c8.731-4.273 17.916-1.586 24.4 3.281 11.962 8.977 16.954 26.529 25.835 25.373 1.859-.243 3.58-2.095 2.691-4.763 2.199-.532 4.293.347 5.881 2.24 3.494 4.163 5.664 12.455 12.185 22.213 4.166 6.236 14.174 12.992 17.033 19.175-4.653-3.067-10.087-2.1-10.837.609 8.187 4.282 15.561 9.283 18.618 21.044-4.482-2.072-8.574-3.623-13.055-3.098 3.744 7.932 5.015 16.123 1.455 21.446-11.397-16.702-25.034-13.921-30.549-10.041-4.298 3.023-8.394 7.578-8.727 18.211-.087 2.785.589 7.217 1.786 11.366 1.196 4.149 2.526 7.428 2.574 11.218 16.848-9.703 30.064-12.629 39.572-12.209 17.807.788 29.348 14.918 28.722 32.986-.306 8.843-4.046 17.391-10.657 25.829-7.478 9.545-18.06 18.761-25.055 28.309-3.663 5.002-6.116 10.629-7.143 15.747-1.653 8.239-.41 17.719 8.365 25.678 9.433-5.455 18.316-7.645 26.766-7.004 8.653.657 15.516 5.826 22.181 11.312 3.005 2.474 6.157 5.061 12.542 4.351-2.103 2.446-5.96 5.086-11.765 4.804 13.633 16.538 19.116 37.207 11.57 51.655-1.235-8.322-4.009-10.336-6.51-12.053-3.321-2.28-5.989-2.702-10.799-5.23 2.481 4.846 2.233 8.432.62 13.961-5.892-15.243-13.538-11.59-24.301-22.742 1.266 5.1 1.426 9.225-.49 13.934-.665-4.642-3.412-8.177-6.136-10.187-9.733-7.179-21.9-8.86-19.537-32.052-12.475-9.899-17.022-21.632-16.139-33.346.732-9.715 4.655-18.618 10.958-26.981 6.712-8.902 15.995-17.194 22.58-25.203 7.21-8.77 13.991-24.185 6.124-35.19-5.128-7.173-19.897-11.315-51.042 8.217-1.624 16.674-14.408 33.825-17.119 49.084-1.017 5.729-.508 10.669.533 15.875.919 4.593 2.339 9.394 2.262 15.127 5.335-4.443 11.45-5.51 16.004-3.783-3.625 1.385-6.693 5.877-6.613 11.546.127 8.843 5.157 17.825.372 27.805 4.011-2.876 8.411-4.583 13.396-2.393-11.198 7.425-.967 16.992-6.322 29.287 3.938-1.941 9.628-1.935 13.759.41-13.274 3.025-6.483 20.075-17.811 31.087 4.895-.209 8.913 2.116 11.275 5.804-11.92-1.977-18.006 14.136-28.14 22.782-9.519 8.122-21.228 11.045-34.908 8.453-.173 2.009 3.093 4.992 7.075 7.001-12.442 5.304-25.249 1.345-36.133-8.418.478 4.179-.214 8.357-3.244 12.342C18.69 38.41 5.389 33.011.726 25.89c-2.119-3.236-3.381-6.79-3.26-10.84-11.857-8.404-15.143-7.847-18.624-18.005-5.935-4.945-13.138-10.085-17.515-15.03.139-1.518.764-3.331 1.098-5.046l3.46 3.406c-1.228-3.189-1.029-6.308.448-8.857 2.818-4.866 8.452-7.489 11.708-9.571-2.014 6.095-1.437 7.711.925 9.253 5.18 3.382 17.232 2.202 18.3.545 1.45-2.249-.362-12.762-6.933-15.528-4.735-1.993-7.892-.537-11.318 3.074" style="fill:#ffe600;fill-opacity:1;fill-rule:evenodd;stroke:none" transform="translate(258.658 523.596)"/><path d="M0 0c-1.525-.084-2.506.19-2.92.803-.524.422-.436 1.437.261 3.044L.48 13.335c2.027 6.193 3.749 10.864 5.209 14.013 1.199-3.065 2.724-7.503 4.577-13.336l3.27-10.293c.718-1.606.849-2.62.391-3.043C13.491.232 12.532 0 11.007 0Zm11.682-6.678c2.18 0 3.684-.085 4.512-.254.872-.317 1.373-1.015 1.548-2.029l3.4-10.906c1.613-4.755 2.419-7.629 2.419-8.622 0-.36-.175-.761-.502-1.163-.414-.422-1.373-.761-2.898-.993l-4.098-.634c-.566-.613-.806-1.374-.741-2.283 0-.951.349-1.691 1.003-2.176 5.47.253 11.18.38 17.13.38 6.757 0 13.251-.127 19.486-.38.588.485.893 1.31.893 2.409-.087.993-.348 1.691-.763 2.05l-4.839.74c-2.179.422-3.77 1.479-4.75 3.17-.632.951-1.178 2.092-1.679 3.402-.567 1.29-1.264 2.854-2.049 4.713L22.558 30.518c-2.964 8.475-4.882 14.244-5.754 17.351-.392 1.649-1.373 2.473-2.898 2.473-.153-.169-1.22-1.226-3.161-3.149-2.092-1.944-4.707-3.445-7.846-4.459.087-3.192-1.569-8.56-4.947-16.105L-13.425-4.27c-3.226-8.791-5.842-15.576-7.868-20.31-1.024-2.367-2.158-3.973-3.4-4.84-1.264-.824-2.725-1.31-4.316-1.478l-3.421-.381c-.415-.613-.588-1.374-.502-2.283 0-.951.305-1.691.894-2.176 5.143.169 9.502.295 13.033.38a682.592 682.592 0 0 0 14.842-.38c.589.422.872 1.183.872 2.303 0 .994-.196 1.712-.609 2.156l-3.837.634c-1.787.401-2.943.782-3.531 1.099-.697.254-1.045.613-1.045 1.057-.088.739.217 2.261.915 4.522l4.707 14.752c.327 1.205.785 1.966 1.373 2.283.392.169 1.33.254 2.768.254z" style="fill:#7d1c42;fill-opacity:1;fill-rule:evenodd;stroke:none" transform="translate(164.948 621.081)"/><path d="M0 0c4.337 10.166 7.847 17.288 10.527 21.324 1.352 2.495 3.683 3.973 6.975 4.46l3.29.634c.502.486.763 1.247.763 2.283-.174 1.035-.523 1.712-1.024 2.049-3.618-.253-7.541-.38-11.747-.38-4.665 0-9.851.127-15.583.38-.785-.337-1.178-.971-1.178-1.923-.066-1.035.131-1.839.632-2.409l3.706-.866c1.525-.255 2.484-.571 2.898-.93.327-.339.501-.761.501-1.247 0-.656-.414-2.199-1.242-4.587C-3.945 11.772-7.28 2.917-11.486-7.735l-4.707-11.899c-1.613-4.015-2.943-7.143-4.011-9.426-.871 2.029-2.201 5.284-3.966 9.806L-35.308 9.299c-1.525 3.889-2.746 7.059-3.705 9.489-.893 2.473-1.351 3.974-1.351 4.46-.087 1.12.959 1.923 3.16 2.43l3.815.74c.414.655.632 1.458.632 2.409 0 .825-.263 1.48-.741 1.923-7.302-.253-13.644-.38-19.05-.38-5.818 0-11.55.127-17.196.38-.501-.337-.849-.929-1.067-1.796-.175-.909.021-1.754.588-2.536l3.509-.866c2.811-.423 4.795-1.311 5.95-2.664 1.111-1.289 2.789-5.009 5.056-11.158l20.531-51.632c1.94-5.241 3.705-10.06 5.318-14.435.741-.697 1.875-1.057 3.4-1.057 1.94 0 3.422.36 4.447 1.057 2.528 6.636 6.799 17.436 12.815 32.399z" style="fill:#7d1c42;fill-opacity:1;fill-rule:evenodd;stroke:none" transform="translate(278.63 639.066)"/><path d="M0 0c-.087 2.494.118 4.029.676 4.607.4.415 1.569.613 3.487.613h11.17c3.226 0 5.83-.308 7.782-.993 2.014-.709 3.46-1.817 4.467-3.171 1.149-1.541 2.419-4.839 3.684-9.932.805-.487 1.757-.581 2.877-.487.889.074 1.525.318 1.896.994-.219 9.806-.306 16.4-.306 19.782-2.528-.254-8.239-.381-17.131-.381h-28.06c-3.051 0-6.103.085-9.176.127-3.008.041-5.928.085-8.739.254-.677-.338-1.004-1.015-1.004-2.05 0-1.121.24-1.924.763-2.41l2.528-.38c2.899-.232 4.708-1.162 5.471-2.769.654-1.627.981-5.305.981-11.032v-47.193c0-5.558-.327-9.152-.981-10.779-.763-1.522-2.572-2.451-5.471-2.768l-4.206-.634c-.501-.444-.763-1.163-.763-2.156 0-1.036.262-1.818.763-2.303 7.628.253 14.297.38 19.986.38 5.884 0 12.663-.127 20.378-.38.501.485.763 1.267.763 2.303 0 .993-.262 1.712-.763 2.156l-4.664.634c-2.681.317-4.424 1.246-5.252 2.789-.85 1.606-1.243 5.2-1.156 10.758v17.098c0 1.775.215 2.9.676 3.36.322.321 1.286.486 2.877.486h10.952c3.247 0 5.539-.388 6.778-1.289 1.203-.874 1.913-2.875 2.506-5.833l.611-3.043c.566-.487 1.393-.655 2.485-.614 1.087.042 1.852.254 2.245.74-.241 3.974-.35 8.369-.35 13.188 0 4.925.109 9.447.35 13.568-.393.656-1.156.993-2.245.993-1.09 0-1.919-.295-2.485-.866l-.611-3.043c-.592-2.958-1.324-4.911-2.506-5.813-1.258-.957-3.531-1.309-6.778-1.309H3.553c-1.591 0-2.55.19-2.877.803C.219-25.573 0-24.558 0-22.952Z" style="fill:#7d1c42;fill-opacity:1;fill-rule:evenodd;stroke:none" transform="translate(335.252 658.404)"/><path d="M0 0c-13.638 0-25.2-3.762-34.71-11.265a36.304 36.304 0 0 1-5.944-6.065 40.967 40.967 0 0 1-4.841-7.63c-1.34-2.811-2.399-5.854-3.177-9.151-.821-3.276-1.232-6.869-1.232-10.778 0-7.778 1.556-14.351 4.669-19.761 2.896-5.411 6.656-9.891 11.259-13.442 9.532-6.53 20.792-9.743 33.781-9.658 4.928.085 9.575.676 13.898 1.797 4.3.993 8.147 1.944 11.584 2.895 2.01 3.381 3.588 10.039 4.712 19.951-.39.739-1.146 1.247-2.205 1.479-1.102.085-1.945-.127-2.507-.613-1.6-4.586-4.388-8.897-8.343-12.955-2.009-1.923-4.43-3.508-7.24-4.692-2.875-1.374-6.225-2.05-10.072-2.05-7.823 0-14.61 3.339-20.381 10.039-5.921 6.594-8.99 16.21-9.142 28.806.152 12.68 3.243 22.106 9.272 28.299C-14.761-8.813-8.212-5.812-.973-5.812c12.319-.084 20.187-6.129 23.623-18.155.648-.485 1.535-.654 2.637-.485 1.058.169 1.75.634 2.075 1.416-1.06 9.13-1.534 15.702-1.469 19.76-1.924.232-5.101.845-9.575 1.797C11.908-.571 6.462-.085 0 0" style="fill:#7d1c42;fill-opacity:1;fill-rule:evenodd;stroke:none" transform="translate(433.669 671.423)"/></g></svg>