<svg xmlns="http://www.w3.org/2000/svg" xml:space="preserve" width="407.30933" height="407.30933" viewBox="0 0 407.30931 407.30933"><defs><clipPath id="a" clipPathUnits="userSpaceOnUse"><path d="M0 600h800V0H0Z"/></clipPath></defs><g clip-path="url(#a)" transform="matrix(1.33333 0 0 -1.33333 -329.679 603.655)"><path d="M0 0c0-84.358-68.382-152.741-152.741-152.741-84.357 0-152.741 68.383-152.741 152.741 0 84.358 68.384 152.741 152.741 152.741C-68.382 152.741 0 84.358 0 0" style="fill:#000;fill-opacity:1;fill-rule:nonzero;stroke:none" transform="translate(552.741 300)"/><path d="M0 0c0-81.988-66.462-148.451-148.451-148.451-81.987 0-148.451 66.463-148.451 148.451s66.464 148.451 148.451 148.451C-66.462 148.451 0 81.988 0 0" style="fill:#efe426;fill-opacity:1;fill-rule:nonzero;stroke:none" transform="translate(548.451 300)"/><path d="M0 0c0-79.618-64.541-144.16-144.16-144.16-79.618 0-144.16 64.542-144.16 144.16 0 79.619 64.542 144.16 144.16 144.16C-64.541 144.16 0 79.619 0 0" style="fill:#000;fill-opacity:1;fill-rule:nonzero;stroke:none" transform="translate(544.16 300)"/><path d="M0 0c0-71.087-57.627-128.715-128.715-128.715-71.087 0-128.714 57.628-128.714 128.715 0 71.088 57.627 128.714 128.714 128.714C-57.627 128.714 0 71.088 0 0" style="fill:#efe426;fill-opacity:1;fill-rule:nonzero;stroke:none" transform="translate(528.715 300)"/><path d="M0 0c0-68.623-55.629-124.252-124.252-124.252-68.623 0-124.252 55.629-124.252 124.252 0 68.623 55.629 124.252 124.252 124.252C-55.629 124.252 0 68.623 0 0" style="fill:#000;fill-opacity:1;fill-rule:nonzero;stroke:none" transform="translate(524.252 300)"/><path d="M0 0c0-66.253-53.708-119.962-119.962-119.962-66.253 0-119.962 53.709-119.962 119.962s53.709 119.962 119.962 119.962C-53.708 119.962 0 66.253 0 0" style="fill:#efe426;fill-opacity:1;fill-rule:nonzero;stroke:none" transform="translate(519.962 300)"/><path d="M0 0a4.251 4.251 0 0 1-2.692-.926c-.789-.619-1.401-1.725-1.834-3.322-.573-2.07-.858-5.559-.858-10.461 0-4.903.256-8.271.768-10.105.513-1.835 1.159-3.056 1.939-3.664A4.231 4.231 0 0 1 0-29.39c1.006 0 1.903.309 2.692.927.789.617 1.4 1.724 1.834 3.321.573 2.052.859 5.53.859 10.433 0 4.902-.257 8.272-.77 10.105C4.102-2.77 3.457-1.545 2.678-.926A4.197 4.197 0 0 1 0 0m0 6.65c4.205 0 7.491-1.445 9.86-4.334 2.823-3.422 4.234-9.097 4.234-17.025 0-7.909-1.421-13.593-4.263-17.053C7.481-34.614 4.205-36.04 0-36.04c-4.225 0-7.629 1.563-10.215 4.69-2.587 3.128-3.879 8.704-3.879 16.726 0 7.87 1.421 13.536 4.263 16.997C-7.481 5.225-4.205 6.65 0 6.65" style="fill:#000;fill-opacity:1;fill-rule:nonzero;stroke:none" transform="translate(380.309 238.441)"/><path d="M0 0c0 2.581-.615 4.584-1.844 6.008-1.231 1.423-2.652 2.135-4.267 2.135-1.535 0-2.81-.584-3.824-1.751-1.013-1.167-1.52-3.079-1.52-5.737 0-2.695.551-4.675 1.653-5.936 1.103-1.262 2.481-1.893 4.134-1.893 1.594 0 2.938.608 4.03 1.821C-.545-4.138 0-2.354 0 0m-18.834-17.509 8.065.853c.198-1.573.71-2.74 1.539-3.497.828-.758 1.923-1.137 3.285-1.137 1.715 0 3.174.76 4.377 2.28C-.365-17.489.404-14.336.739-9.548c-2.091-2.337-4.704-3.504-7.843-3.504-3.412 0-6.355 1.268-8.832 3.804C-18.412-6.711-19.65-3.41-19.65.656c0 4.238 1.307 7.653 3.921 10.246 2.613 2.594 5.94 3.891 9.983 3.891 4.398 0 8.008-1.641 10.826-4.922C7.9 6.591 9.311 1.195 9.311-6.316c0-7.646-1.469-13.162-4.41-16.546-2.94-3.386-6.766-5.078-11.482-5.078-3.394 0-6.137.872-8.229 2.615-2.091 1.742-3.433 4.348-4.024 7.816" style="fill:#000;fill-opacity:1;fill-rule:nonzero;stroke:none" transform="translate(424.475 230.299)"/><path d="M0 0h18.757c6.922 0 12.951 2.938 12.951 13.81 0 10.724-5.136 14.984-12.616 14.984H0Zm0 44.513h17.752c6.141 0 10.718 3.673 10.718 12.487 0 9.99-5.805 12.047-12.057 12.047H0Zm-17.529 42.456h37.514c15.184 0 25.456-6.464 25.456-26.002 0-10.283-3.908-17.482-10.83-21.889 9.714-3.673 14.626-13.516 14.626-26.59 0-21.302-13.733-30.41-28.135-30.41h-38.631z" style="fill:#000;fill-opacity:1;fill-rule:nonzero;stroke:none" transform="translate(322.947 269.106)"/><path d="M0 0h18.758c6.922 0 12.951 2.938 12.951 13.81 0 10.724-5.136 14.984-12.616 14.984H0Zm0 44.513h17.753c6.141 0 10.718 3.673 10.718 12.487 0 9.99-5.806 12.047-12.058 12.047H0Zm-17.527 42.456h37.512c15.185 0 25.456-6.464 25.456-26.002 0-10.283-3.908-17.482-10.83-21.889 9.714-3.673 14.626-13.516 14.626-26.59 0-21.302-13.732-30.41-28.134-30.41h-38.63z" style="fill:#000;fill-opacity:1;fill-rule:nonzero;stroke:none" transform="translate(460.242 269.106)"/><path d="M0 0h-19.762l-25.903 104.892h18.087l17.753-73.747h.222l17.976 73.747H26.46Z" style="fill:#000;fill-opacity:1;fill-rule:nonzero;stroke:none" transform="translate(412.507 298.55)"/></g></svg>